<svg t="1716832761424" class="icon" viewBox="0 0 1024 1024" version="1.1" xmlns="http://www.w3.org/2000/svg" p-id="3933" xmlns:xlink="http://www.w3.org/1999/xlink" width="16" height="16"><path d="M1023.997952 524.94231c0 114.564891-32.808894 217.026126-97.894204 308.489623-65.12627 91.402057-149.155542 154.480331-252.169736 189.644421-11.775976 2.150396-20.991958 0.532479-26.111948-4.710391a26.582987 26.582987 0 0 1-8.232943-20.520919v-143.974112c0-44.093352-11.775976-76.697447-34.815931-97.156925a458.402923 458.402923 0 0 0 68.136824-12.144616 251.084298 251.084298 0 0 0 62.545795-26.746827c21.524437-12.636135 39.444401-27.361225 53.821332-45.219749 14.335971-17.838044 26.111948-42.065836 35.32793-71.987056 9.256941-29.96218 13.864932-64.102272 13.864932-103.014194 0-55.15253-17.407965-101.908276-52.817814-140.779239 16.424927-41.553837 14.88893-87.797584-5.11999-139.263721-12.287975-4.239352-30.20794-1.576957-53.780373 7.331825-23.592913 8.929262-44.072872 18.943962-61.521796 29.96218l-25.12891 16.281568A455.392369 455.392369 0 0 0 511.998976 253.296133c-44.072872 0-86.609747 5.775348-128.102144 17.838045-9.215982-6.430707-18.616283-12.554215-28.200903-18.370524-11.816936-7.372785-30.2489-16.281567-55.889809-26.296267-25.08795-10.485739-44.564391-13.148134-57.405325-9.441261-19.455961 51.486617-20.991958 97.750844-4.607991 139.263721-34.85689 39.403441-52.776854 86.159188-52.776854 141.311718 0 38.911922 4.607991 73.052014 13.864932 102.481715 9.175022 29.429701 20.991958 53.616533 34.836411 72.007536a177.888924 177.888924 0 0 0 53.800852 45.731748c21.544917 12.083176 42.536875 20.991958 62.545795 26.746827 22.405075 5.754868 45.17879 9.83038 68.157304 12.144616-17.940444 16.220128-28.692423 39.89496-32.788415 70.369139a111.984416 111.984416 0 0 1-30.248899 9.97374 199.044722 199.044722 0 0 1-37.928885 3.153914c-14.88893 0-29.224902-4.710391-43.581352-14.704611-14.335971-9.97374-26.623947-24.166352-36.863927-42.557355a113.295133 113.295133 0 0 0-32.296895-35.737528c-12.840934-9.420781-24.104912-14.725091-32.808894-16.302048l-13.311974-2.109436c-9.256941 0-15.912928 1.105918-19.496921 3.153914-3.583993 2.109436-4.607991 4.730871-3.071994 7.884784 1.535997 3.153914 3.583993 6.348787 6.143988 9.482221 2.559995 3.153914 5.631989 5.775348 8.703983 8.396784l4.60799 3.153913c9.76894 4.710391 19.496921 13.168614 29.224902 25.763789 9.76894 12.595175 16.424927 24.166352 21.032918 34.67257l6.655987 15.769569c5.631989 17.346525 15.359969 31.518657 29.204421 42.024876a107.314985 107.314985 0 0 0 44.584871 20.500439c15.871968 3.153914 31.272897 4.710391 46.120868 4.71039 14.84797 0 27.176906-0.511999 36.904886-2.600954l15.400929-2.641915c0 17.326045 0 37.846964 0.471039 60.968838 0 23.142354 0.552959 35.737529 0.552959 36.782006a26.828746 26.828746 0 0 1-8.744942 20.479959c-5.631989 5.24287-14.84797 6.819826-26.623947 4.710391-103.014194-35.18457-187.063946-98.221884-252.169736-189.664901C32.296895 741.968436 0 638.974722 0 524.94231c0-95.08845 23.080914-182.886034 68.689783-263.249393 45.588389-80.404319 107.622185-143.974112 186.551947-191.282818C333.618533 23.674833 419.224762 0 511.998976 0c92.774214 0 178.359963 23.654353 256.757246 70.430579 78.417763 46.735267 140.451559 110.346019 186.572427 191.262338 45.588389 79.87184 68.669303 168.140464 68.669303 263.249393" fill="#000000" p-id="3934"></path></svg>
